<svg id="Layer_1" enable-background="new 0 0 128 128" height="512" viewBox="0 0 128 128" width="512" xmlns="http://www.w3.org/2000/svg">
<!--green--><path d="m6.5 69.9c0-7.4 1.5-14.6 8.4-18.9 16.4-8.7 24 6.5 38-1.4 12.9-7.3 19-25.4 38.2-25.4s30.4 13.1 30.4 27.6-6.7 29.2-29.2 27.3c-13.8-1.1-22 24.7-43 24.7s-42.8-11.5-42.8-33.9z" fill="#9ad14b"/>
<!--hole--><ellipse cx="64.4" cy="70.4" fill="#994c0f" rx="7.5" ry="4.4"/>
<!--flag--><path d="m83.1 33.5-17.7-8.9v17.7z" fill="#ffc043"/>
<!--flagstick--><path d="m64.4 72.8c-1 0-1.8-.8-1.8-1.8v-46.4c0-1 .8-1.8 1.8-1.8s1.8.8 1.8 1.8v46.4c-.1 1-.9 1.8-1.8 1.8z" fill="#e7e6e4"/></svg>